<?xml version="1.0" encoding="utf-8"?>
<!-- Generator: Adobe Illustrator 24.2.3, SVG Export Plug-In . SVG Version: 6.00 Build 0)  -->
<svg version="1.1" id="Ebene_1" xmlns="http://www.w3.org/2000/svg" xmlns:xlink="http://www.w3.org/1999/xlink" x="0px" y="0px"
	 viewBox="0 0 180 51.4" style="enable-background:new 0 0 180 51.4;" xml:space="preserve">
<style type="text/css">
	.st0{fill:#008AC9;}
</style>
<g>
	<g>
		<g>
			<path class="st0" d="M82.2,29.4c0,5.6-0.6,8-2.4,9.9c-1.9,2.2-4.6,3.1-8.8,3.1c-2.3,0.1-4.6-0.2-6.9-0.8v-8.1
				c1.3,0.4,2.7,0.6,4.1,0.6c3.1,0,4.1-1.2,4.1-4.8V8.2h10L82.2,29.4L82.2,29.4z"/>
		</g>
	</g>
	<g>
		<g>
			<path class="st0" d="M103.3,35.3h-9.1l-2,6.6h-8.4L94.2,8.1h11l10.6,33.8h-10.6L103.3,35.3z M101.5,27.9l-2.7-9.8L96,27.9H101.5z
				"/>
		</g>
	</g>
	<g>
		<g>
			<path class="st0" d="M137.4,41.9l-5.8-12.7l-3.5,4.9v7.8h-9.7V8.2h9.7v13.9l9.3-13.9h9.3l-8.5,12.3l10.6,21.4H137.4z"/>
		</g>
	</g>
	<g>
		<g>
			<path class="st0" d="M180,24.7c0,10.5-6.5,17.7-15.8,17.7c-9.8,0-16.2-6.9-16.2-17.3c0-10.5,6.4-17.5,16-17.5
				C173.8,7.6,180,14.3,180,24.7 M159.1,25.2c0,6.5,1.6,9.6,4.9,9.6c3.6,0,4.9-2.9,4.9-10.7c0-5.9-1.6-8.8-4.8-8.8
				S159.1,18.9,159.1,25.2"/>
		</g>
	</g>
	<g>
		<g>
			<path class="st0" d="M0,25.7c0,14.2,11.5,25.7,25.7,25.7s25.7-11.5,25.7-25.7S39.9,0,25.7,0l0,0C11.5,0,0,11.5,0,25.7 M2.1,25.7
				c0-13,10.5-23.5,23.5-23.5s23.5,10.5,23.5,23.5S38.6,49.2,25.6,49.2l0,0C12.7,49.2,2.1,38.7,2.1,25.7"/>
		</g>
	</g>
	<g>
		<g>
			<path class="st0" d="M9.6,39.4c17.5-4.9,30-0.4,30-0.4L44,24.4c-13,0.8-25.7,4.8-36.8,11.7C8,37.2,8.7,38.3,9.6,39.4"/>
		</g>
	</g>
	<g>
		<g>
			<path class="st0" d="M6.5,34.4c8.1-5.3,17-9.3,26.4-11.8V5.8c0,0-11.5,5.3-27.7,24.9C5.5,31.9,5.9,33.2,6.5,34.4"/>
		</g>
	</g>
</g>
</svg>
