<?xml version="1.0" encoding="utf-8"?>
<!-- Generator: Adobe Illustrator 19.0.0, SVG Export Plug-In . SVG Version: 6.00 Build 0)  -->
<svg version="1.1" id="Layer_1" xmlns="http://www.w3.org/2000/svg" xmlns:xlink="http://www.w3.org/1999/xlink" x="0px" y="0px"
	 width="291.3px" height="167.3px" viewBox="0 0 291.3 167.3" style="enable-background:new 0 0 291.3 167.3;" xml:space="preserve"
	>
<style type="text/css">
	.st0{fill:#FFFFFF;stroke:#E0E1E0;stroke-width:3.7032;}
	.st1{fill:#1998D5;}
</style>
<g>
	<path class="st0" d="M8.1,1.7h275.8c3.4,0,5.9,2.5,5.9,5.9v151c0,4.2-2.5,6.7-5.9,6.7H8.1c-3.4,0-5.9-2.5-5.9-6.7V7.6
		C2.2,4.2,4.8,1.7,8.1,1.7z"/>
	<polygon class="st1" points="102.6,103.7 102.6,97 79.8,97 79.8,125.7 102.6,125.7 102.6,118.9 86.6,118.9 86.6,114.7 102.6,114.7 
		102.6,108 86.6,108 86.6,103.7 	"/>
	<polygon class="st1" points="125.4,125.7 135.5,125.7 122.8,111.3 135.5,97 125.4,97 118.6,106.3 111.9,97 103.4,97 114.4,111.3 
		103.4,125.7 111.9,125.7 118.6,117.2 	"/>
	<path class="st1" d="M137.2,97v28.7h7.6v-10.1h9.3c5.9,0,9.3-3.4,9.3-8.4c0-6.7-3.4-10.1-9.3-10.1H137.2z M155.7,106.3L155.7,106.3
		c0,1.7-0.8,3.4-1.7,3.4c-1.7,0-1.7,0-1.7,0h-7.6v-5.9h7.6h1.7C154.9,103.7,155.7,104.6,155.7,106.3
		C155.7,107.1,155.7,107.1,155.7,106.3z"/>
	<path class="st1" d="M171.8,115.6h2.5l8.4,10.1h10.1l-10.1-11c5.1,0,7.6-4.2,7.6-8.4l0,0c0-5.9-4.2-9.3-9.3-9.3h-16.9v28.7h7.6
		V115.6L171.8,115.6L171.8,115.6z M179.3,103.7L179.3,103.7c2.5,0,3.4,0.8,3.4,2.5l0,0c0,1.7-0.8,3.4-3.4,3.4h-7.6v-5.9H179.3z"/>
	<polygon class="st1" points="216.5,103.7 216.5,97 193.7,97 193.7,125.7 216.5,125.7 216.5,118.9 200.4,118.9 200.4,114.7 
		216.5,114.7 216.5,108 200.4,108 200.4,103.7 	"/>
	<path class="st1" d="M240.9,73.4h8.4V43.9h-7.6v18.6l-11-18.6h-9.3v29.5h7.6V54.8L240.9,73.4z M199.6,61.6l4.2-10.1l4.2,10.1H199.6
		L199.6,61.6z M212.2,73.4h9.3L208,43.9h-8.4l-13.5,29.5h9.3l1.7-6.7h13.5L212.2,73.4z M182.7,73.4L182.7,73.4l3.4-6.7h-1.7
		c-5.1,0-7.6-3.4-7.6-7.6v-0.8c0-4.2,2.5-7.6,7.6-7.6h7.6v-6.7h-9.3c-8.4,0-12.7,6.7-12.7,14.3V59C170.1,68.3,174.3,73.4,182.7,73.4
		L182.7,73.4z M159.1,73.4h6.7V43.9h-6.7V73.4z M144.8,50.6c2.5,0,3.4,2.5,3.4,3.4c0,1.7-0.8,3.4-3.4,3.4h-7.6v-6.7H144.8z
		 M137.2,62.4h3.4l7.6,11h10.1l-10.1-11c4.2-0.8,7.6-4.2,7.6-8.4s-4.2-10.1-10.1-10.1h-16v29.5h7.6V62.4z M125.4,50.6v-6.7h-22.8
		v29.5h22.8v-6.7h-15.2v-5.1h15.2v-5.9h-15.2v-5.1H125.4L125.4,50.6z M76.4,73.4h6.7l7.6-21.9v21.9h5.9V43.9H86.6l-6.7,18.6
		l-6.7-18.6H61.3v29.5h7.6V51.4L76.4,73.4z M39.3,61.6l4.2-10.1l4.2,10.1H39.3L39.3,61.6z M52.8,73.4h8.4L47.8,43.9h-8.4L26.7,73.4
		h8.4l1.7-6.7h13.5L52.8,73.4z"/>
	<path class="st1" d="M234.2,108c6.7,0,10.1,2.5,10.1,9.3c0,5.1-5.1,8.4-10.1,8.4H219v-6.7h15.2c0.8,0,2.5-0.8,2.5-1.7l0,0
		c0-1.7-1.7-2.5-2.5-2.5l0,0h-7.6c-5.1,0-8.4-3.4-8.4-8.4c0-5.9,4.2-9.3,9.3-9.3h15.2l-1.7,6.7h-13.5l0,0c-0.8,0-1.7,0.8-1.7,2.5
		l0,0l0,0c0,0.8,0.8,1.7,1.7,1.7l0,0H234.2z"/>
	<path class="st1" d="M260.3,108c5.1,0,8.4,2.5,8.4,9.3c0,5.1-3.4,8.4-9.3,8.4h-15.2v-6.7h15.2c0.8,0,1.7-0.8,1.7-1.7l0,0
		c0-1.7-0.8-2.5-1.7-2.5l0,0h-6.7c-5.9,0-10.1-3.4-10.1-8.4c0-5.9,4.2-9.3,11-9.3h15.2l-3.4,6.7h-11.8c-0.8,0-0.8,0-0.8,0
		c-0.8,0-2.5,0.8-2.5,2.5l0,0l0,0c0,0.8,1.7,1.7,2.5,1.7c0,0,0,0,0.8,0H260.3L260.3,108z"/>
</g>
</svg>
